<svg width="85" height="85" viewBox="0 0 85 85" fill="none" xmlns="http://www.w3.org/2000/svg">
<path d="M6.68064 19.1167C6.68064 12.4549 12.1004 7.03511 18.7622 7.03511H65.884C72.546 7.03511 77.9656 12.4549 77.9656 19.1167V66.2388C77.9656 72.9004 72.546 78.3204 65.884 78.3204H18.7622C12.1004 78.3204 6.68064 72.9004 6.68064 66.2388V19.1167ZM18.7622 85H65.884C76.2296 85 84.6464 76.5844 84.6464 66.2388V19.1167C84.6464 8.77111 76.2296 0.354492 65.884 0.354492H18.7622C8.4166 0.354492 0 8.77111 0 19.1167V66.2388C0 76.5844 8.4166 85 18.7622 85Z" fill="#EEEEF0"/>
</svg>
